<mxfile host="app.diagrams.net" modified="2024-06-16T22:44:21.920Z" agent="Mozilla/5.0 (Windows NT 10.0; Win64; x64) AppleWebKit/537.36 (KHTML, like Gecko) Chrome/126.0.0.0 Safari/537.36 Edg/126.0.0.0" version="24.5.4" etag="WsUfr22NjeLFDR3r8WHf" type="github">
  <diagram name="Page-1" id="hABJFq-6JvH_PQjp92d_">
    <mxGraphModel>
      <root>
        <mxCell id="0" />
        <mxCell id="1" parent="0" />
      </root>
    </mxGraphModel>
  </diagram>
</mxfile>
